<svg version="1" xmlns="http://www.w3.org/2000/svg" width="506.667" height="506.667" viewBox="0 0 380.000000 380.000000"><path d="M0 17.5V35h26.3c29.4 0 32.1.6 36.8 7.1l2.4 3.4.3 39.7.3 39.8h39.2c37.4 0 39.4.1 42.5 2 1.8 1.1 4.1 3.4 5.2 5.2 1.9 3.2 2 5.2 2 58.4v55.1l-2.2 3.3c-4.8 7-4.8 7-48 7H66v38.7c0 54 2.5 50.6-38.7 51.1l-27.3.3V380h116.9c101.4 0 117-.2 117.4-1.5.4-.8 2.4-2.3 4.6-3.5 3.9-2 5.5-2 72.6-2H380v-23h-68.2c-66.9 0-68.2 0-72.4-2.1-2.4-1.1-5.2-3.5-6.4-5.3-2-3.3-2-4.7-2-70.7 0-65.5.1-67.5 2-70.7 1.1-1.8 3.4-4.1 5.2-5.2 3.2-1.9 5.2-2 72.6-2H380v-24h-69.2c-67.4 0-69.4-.1-72.6-2-1.8-1.1-4.1-3.4-5.2-5.2-1.9-3.1-2-4.7-1.8-31.5.3-26.7.4-28.3 2.4-31 4.8-6.5 1.7-6.3 77.7-6.3H380V70h-69.2c-67.4 0-69.4-.1-72.6-2-1.8-1.1-4.1-3.4-5.2-5.2-1.9-3.1-2-4.7-1.8-31.3.2-15.4.7-28.8 1.2-29.8.8-1.6-5.1-1.7-115.8-1.7H0v17.5z"/><path d="M0 190v147h27.4c27.3 0 27.5 0 29-2.2 1.4-1.9 1.6-7.9 1.6-44.5V248h42.3c36.6 0 42.6-.2 44.5-1.6l2.2-1.5v-54.4c0-48.1-.2-54.5-1.6-55.9-1.4-1.4-6.8-1.6-44.5-1.6H58V91.2c0-22.9-.3-42.7-.6-43.8-1.1-4-4.2-4.4-31.4-4.4H0v147zM252.8 119.1c-1.6.9-1.8 2.6-1.8 12.7 0 7.9.4 12.2 1.2 13 .9.9 16.6 1.2 64.5 1.2H380v-28h-62.7c-40.8.1-63.4.4-64.5 1.1zM303.2 247.6c-9.9 4.9-14.8 14.2-14 26.3.6 8.1 3.3 13.7 9 18.5 7.2 6.2 10 6.6 48 6.6H380v-54h-71.6l-5.2 2.6z"/></svg>